ffmpeg started on 2025-06-07 at 16:02:20
Report written to "D:\Convert\FFMetrics\reports\ssim_report-6.txt"
Log level: 32
Command line:
ffmpeg -hide_banner -nostdin -i "G:\\\xc0\xed\xe8\xec\xe5\\\xce\xed\xe3\xee\xe8\xed\xe3\xe8\\!_36_\xce\xf1\xe5\xed\xfc_2024\\DreamCast\\\xd6\xe5\xeb\xe8\xf2\xe5\xeb\xfc, \xea\xee\xf2\xee\xf0\xee\xe3\xee \xe8\xf1\xea\xeb\xfe\xf7\xe8\xeb\xe8 \xe8\xe7 \xe3\xf0\xf3\xef\xef\xfb, \xee\xea\xe0\xe7\xe0\xeb\xf1\xff \xf1\xe8\xeb\xfc\xed\xe5\xe9\xf8\xe8\xec!\\[DC] sonochiyushi - 04_Telegram_HEVC.mkv" -i "G:\\\xc0\xed\xe8\xec\xe5\\\xce\xed\xe3\xee\xe8\xed\xe3\xe8\\!_36_\xce\xf1\xe5\xed\xfc_2024\\DreamCast\\\xd6\xe5\xeb\xe8\xf2\xe5\xeb\xfc, \xea\xee\xf2\xee\xf0\xee\xe3\xee \xe8\xf1\xea\xeb\xfe\xf7\xe8\xeb\xe8 \xe8\xe7 \xe3\xf0\xf3\xef\xef\xfb, \xee\xea\xe0\xe7\xe0\xeb\xf1\xff \xf1\xe8\xeb\xfc\xed\xe5\xe9\xf8\xe8\xec!\\[DC] sonochiyushi - 04_Telegram.mp4" -lavfi "[0:v]settb=AVTB,setpts=PTS-STARTPTS,format=pix_fmts=yuv420p10,fps=24000/1001,scale=1920:1080:flags=bicubic[main];[1:v]settb=AVTB,setpts=PTS-STARTPTS,format=pix_fmts=yuv420p,fps=24000/1001,scale=1920:1080:flags=bicubic[ref];[main][ref]ssim=eof_action=endall:stats_file='D\\:/Convert/FFMetrics/logs/ssim_logfile-6.txt'" -f null -
Input #0, matroska,webm, from 'G:\Аниме\Онгоинги\!_36_Осень_2024\DreamCast\Целитель, которого исключили из группы, оказался сильнейшим!\[DC] sonochiyushi - 04_Telegram_HEVC.mkv':
  Metadata:
    COMPATIBLE_BRANDS: isomiso2avc1mp41
    MAJOR_BRAND     : isom
    MINOR_VERSION   : 512
    ENCODER         : Lavf61.7.100
  Duration: 00:23:30.65, start: -0.021000, bitrate: 960 kb/s
  Stream #0:0: Video: hevc (Main 10), yuv420p10le(tv, bt709, progressive), 1920x1080 [SAR 1:1 DAR 16:9], 23.98 fps, 23.98 tbr, 1k tbn (default)
      Metadata:
        HANDLER_NAME    : VideoHandler
        VENDOR_ID       : [0][0][0][0]
        ENCODER         : Lavc61.19.100 libx265
        BPS             : 763432
        DURATION        : 00:23:30.533708333
        NUMBER_OF_FRAMES: 33819
        NUMBER_OF_BYTES : 134605825
        _STATISTICS_WRITING_APP: mkvpropedit v66.0.0 ('Josie') 64-bit
        _STATISTICS_WRITING_DATE_UTC: 2025-06-05 07:51:36
        _STATISTICS_TAGS: BPS DURATION NUMBER_OF_FRAMES NUMBER_OF_BYTES
  Stream #0:1: Audio: aac (LC), 48000 Hz, stereo, fltp (default)
      Metadata:
        HANDLER_NAME    : SoundHandler
        VENDOR_ID       : [0][0][0][0]
        ENCODER         : Lavc61.19.100 aac
        BPS             : 193189
        DURATION        : 00:23:30.645000000
        NUMBER_OF_FRAMES: 66125
        NUMBER_OF_BYTES : 34065203
        _STATISTICS_WRITING_APP: mkvpropedit v66.0.0 ('Josie') 64-bit
        _STATISTICS_WRITING_DATE_UTC: 2025-06-05 07:51:36
        _STATISTICS_TAGS: BPS DURATION NUMBER_OF_FRAMES NUMBER_OF_BYTES
Input #1, mov,mp4,m4a,3gp,3g2,mj2, from 'G:\Аниме\Онгоинги\!_36_Осень_2024\DreamCast\Целитель, которого исключили из группы, оказался сильнейшим!\[DC] sonochiyushi - 04_Telegram.mp4':
  Metadata:
    major_brand     : isom
    minor_version   : 512
    compatible_brands: isomiso2avc1mp41
    encoder         : Lavf61.1.100
  Duration: 00:23:30.60, start: 0.000000, bitrate: 3601 kb/s
  Stream #1:0[0x1](und): Video: h264 (High) (avc1 / 0x31637661), yuv420p(tv, bt709, progressive), 1920x1080 [SAR 1:1 DAR 16:9], 3453 kb/s, 23.98 fps, 23.98 tbr, 24k tbn (default)
      Metadata:
        handler_name    : VideoHandler
        vendor_id       : [0][0][0][0]
        encoder         : Lavc61.3.100 h264_qsv
  Stream #1:1[0x2](und): Audio: aac (HE-AACv2) (mp4a / 0x6134706D), 48000 Hz, stereo, fltp, 144 kb/s (default)
      Metadata:
        handler_name    : SoundHandler
        vendor_id       : [0][0][0][0]
Stream mapping:
  Stream #0:0 (hevc) -> settb:default
  Stream #1:0 (h264) -> settb:default
  ssim:default -> Stream #0:0 (wrapped_avframe)
  Stream #0:1 -> #0:1 (aac (native) -> pcm_s16le (native))
Output #0, null, to 'pipe:':
  Metadata:
    COMPATIBLE_BRANDS: isomiso2avc1mp41
    MAJOR_BRAND     : isom
    MINOR_VERSION   : 512
    encoder         : Lavf61.7.100
  Stream #0:0: Video: wrapped_avframe, yuv420p10le(tv, bt709, progressive), 1920x1080 [SAR 1:1 DAR 16:9], q=2-31, 200 kb/s, 23.98 fps, 23.98 tbn
      Metadata:
        encoder         : Lavc61.19.100 wrapped_avframe
  Stream #0:1: Audio: pcm_s16le, 48000 Hz, stereo, s16, 1536 kb/s (default)
      Metadata:
        HANDLER_NAME    : SoundHandler
        VENDOR_ID       : [0][0][0][0]
        _STATISTICS_TAGS: BPS DURATION NUMBER_OF_FRAMES NUMBER_OF_BYTES
        BPS             : 193189
        DURATION        : 00:23:30.645000000
        NUMBER_OF_FRAMES: 66125
        NUMBER_OF_BYTES : 34065203
        _STATISTICS_WRITING_APP: mkvpropedit v66.0.0 ('Josie') 64-bit
        _STATISTICS_WRITING_DATE_UTC: 2025-06-05 07:51:36
        encoder         : Lavc61.19.100 pcm_s16le
frame=  181 fps=0.0 q=-0.0 size=N/A time=00:00:07.54 bitrate=N/A speed=14.5x    frame=  427 fps=415 q=-0.0 size=N/A time=00:00:17.80 bitrate=N/A speed=17.3x    frame=  672 fps=433 q=-0.0 size=N/A time=00:00:28.02 bitrate=N/A speed=18.1x    frame=  903 fps=438 q=-0.0 size=N/A time=00:00:37.66 bitrate=N/A speed=18.3x    frame= 1095 fps=424 q=-0.0 size=N/A time=00:00:45.67 bitrate=N/A speed=17.7x    frame= 1344 fps=435 q=-0.0 size=N/A time=00:00:56.05 bitrate=N/A speed=18.1x    frame= 1597 fps=443 q=-0.0 size=N/A time=00:01:06.60 bitrate=N/A speed=18.5x    frame= 1840 fps=447 q=-0.0 size=N/A time=00:01:16.74 bitrate=N/A speed=18.6x    frame= 2030 fps=438 q=-0.0 size=N/A time=00:01:24.66 bitrate=N/A speed=18.2x    frame= 2266 fps=440 q=-0.0 size=N/A time=00:01:34.51 bitrate=N/A speed=18.4x    frame= 2477 fps=437 q=-0.0 size=N/A time=00:01:43.31 bitrate=N/A speed=18.2x    frame= 2689 fps=435 q=-0.0 size=N/A time=00:01:52.15 bitrate=N/A speed=18.1x    frame= 2873 fps=429 q=-0.0 size=N/A time=00:01:59.82 bitrate=N/A speed=17.9x    frame= 3066 fps=425 q=-0.0 size=N/A time=00:02:07.87 bitrate=N/A speed=17.7x    frame= 3269 fps=423 q=-0.0 size=N/A time=00:02:16.34 bitrate=N/A speed=17.6x    frame= 3480 fps=422 q=-0.0 size=N/A time=00:02:25.14 bitrate=N/A speed=17.6x    frame= 3648 fps=416 q=-0.0 size=N/A time=00:02:32.15 bitrate=N/A speed=17.4x    frame= 3859 fps=416 q=-0.0 size=N/A time=00:02:40.95 bitrate=N/A speed=17.3x    frame= 4112 fps=420 q=-0.0 size=N/A time=00:02:51.50 bitrate=N/A speed=17.5x    frame= 4367 fps=423 q=-0.0 size=N/A time=00:03:02.14 bitrate=N/A speed=17.7x    frame= 4635 fps=428 q=-0.0 size=N/A time=00:03:13.31 bitrate=N/A speed=17.9x    frame= 4901 fps=432 q=-0.0 size=N/A time=00:03:24.41 bitrate=N/A speed=  18x    frame= 5159 fps=435 q=-0.0 size=N/A time=00:03:35.17 bitrate=N/A speed=18.1x    frame= 5418 fps=438 q=-0.0 size=N/A time=00:03:45.97 bitrate=N/A speed=18.3x    frame= 5690 fps=441 q=-0.0 size=N/A time=00:03:57.32 bitrate=N/A speed=18.4x    frame= 5940 fps=443 q=-0.0 size=N/A time=00:04:07.74 bitrate=N/A speed=18.5x    frame= 6201 fps=445 q=-0.0 size=N/A time=00:04:18.63 bitrate=N/A speed=18.6x    frame= 6453 fps=447 q=-0.0 size=N/A time=00:04:29.14 bitrate=N/A speed=18.6x    frame= 6716 fps=449 q=-0.0 size=N/A time=00:04:40.11 bitrate=N/A speed=18.7x    frame= 6979 fps=451 q=-0.0 size=N/A time=00:04:51.08 bitrate=N/A speed=18.8x    frame= 7243 fps=453 q=-0.0 size=N/A time=00:05:02.09 bitrate=N/A speed=18.9x    frame= 7482 fps=453 q=-0.0 size=N/A time=00:05:12.06 bitrate=N/A speed=18.9x    frame= 7728 fps=454 q=-0.0 size=N/A time=00:05:22.32 bitrate=N/A speed=18.9x    frame= 7940 fps=453 q=-0.0 size=N/A time=00:05:31.16 bitrate=N/A speed=18.9x    frame= 8174 fps=453 q=-0.0 size=N/A time=00:05:40.92 bitrate=N/A speed=18.9x    frame= 8432 fps=454 q=-0.0 size=N/A time=00:05:51.68 bitrate=N/A speed=18.9x    frame= 8667 fps=454 q=-0.0 size=N/A time=00:06:01.48 bitrate=N/A speed=  19x    frame= 8875 fps=453 q=-0.0 size=N/A time=00:06:10.16 bitrate=N/A speed=18.9x    frame= 9094 fps=452 q=-0.0 size=N/A time=00:06:19.29 bitrate=N/A speed=18.9x    frame= 9354 fps=453 q=-0.0 size=N/A time=00:06:30.13 bitrate=N/A speed=18.9x    frame= 9608 fps=455 q=-0.0 size=N/A time=00:06:40.73 bitrate=N/A speed=  19x    frame= 9831 fps=454 q=-0.0 size=N/A time=00:06:50.03 bitrate=N/A speed=18.9x    frame=10022 fps=452 q=-0.0 size=N/A time=00:06:58.00 bitrate=N/A speed=18.9x    frame=10259 fps=452 q=-0.0 size=N/A time=00:07:07.88 bitrate=N/A speed=18.9x    frame=10516 fps=453 q=-0.0 size=N/A time=00:07:18.60 bitrate=N/A speed=18.9x    frame=10766 fps=454 q=-0.0 size=N/A time=00:07:29.03 bitrate=N/A speed=18.9x    frame=10992 fps=454 q=-0.0 size=N/A time=00:07:38.45 bitrate=N/A speed=18.9x    frame=11241 fps=454 q=-0.0 size=N/A time=00:07:48.84 bitrate=N/A speed=18.9x    frame=11474 fps=454 q=-0.0 size=N/A time=00:07:58.56 bitrate=N/A speed=18.9x    frame=11722 fps=455 q=-0.0 size=N/A time=00:08:08.90 bitrate=N/A speed=  19x    frame=11995 fps=456 q=-0.0 size=N/A time=00:08:20.29 bitrate=N/A speed=  19x    frame=12232 fps=456 q=-0.0 size=N/A time=00:08:30.17 bitrate=N/A speed=  19x    frame=12492 fps=457 q=-0.0 size=N/A time=00:08:41.02 bitrate=N/A speed=19.1x    frame=12745 fps=458 q=-0.0 size=N/A time=00:08:51.57 bitrate=N/A speed=19.1x    frame=12958 fps=457 q=-0.0 size=N/A time=00:09:00.45 bitrate=N/A speed=19.1x    frame=13168 fps=456 q=-0.0 size=N/A time=00:09:09.21 bitrate=N/A speed=  19x    frame=13435 fps=457 q=-0.0 size=N/A time=00:09:20.35 bitrate=N/A speed=19.1x    frame=13658 fps=457 q=-0.0 size=N/A time=00:09:29.65 bitrate=N/A speed=19.1x    frame=13905 fps=457 q=-0.0 size=N/A time=00:09:39.95 bitrate=N/A speed=19.1x    frame=14165 fps=458 q=-0.0 size=N/A time=00:09:50.79 bitrate=N/A speed=19.1x    frame=14421 fps=458 q=-0.0 size=N/A time=00:10:01.47 bitrate=N/A speed=19.1x    frame=14699 fps=460 q=-0.0 size=N/A time=00:10:13.07 bitrate=N/A speed=19.2x    frame=14966 fps=461 q=-0.0 size=N/A time=00:10:24.20 bitrate=N/A speed=19.2x    frame=15227 fps=461 q=-0.0 size=N/A time=00:10:35.09 bitrate=N/A speed=19.2x    frame=15504 fps=463 q=-0.0 size=N/A time=00:10:46.64 bitrate=N/A speed=19.3x    frame=15769 fps=463 q=-0.0 size=N/A time=00:10:57.69 bitrate=N/A speed=19.3x    frame=16017 fps=464 q=-0.0 size=N/A time=00:11:08.04 bitrate=N/A speed=19.3x    frame=16270 fps=464 q=-0.0 size=N/A time=00:11:18.59 bitrate=N/A speed=19.4x    frame=16506 fps=464 q=-0.0 size=N/A time=00:11:28.43 bitrate=N/A speed=19.3x    frame=16746 fps=464 q=-0.0 size=N/A time=00:11:38.44 bitrate=N/A speed=19.4x    frame=16960 fps=463 q=-0.0 size=N/A time=00:11:47.37 bitrate=N/A speed=19.3x    frame=17183 fps=463 q=-0.0 size=N/A time=00:11:56.67 bitrate=N/A speed=19.3x    frame=17445 fps=463 q=-0.0 size=N/A time=00:12:07.60 bitrate=N/A speed=19.3x    frame=17666 fps=463 q=-0.0 size=N/A time=00:12:16.81 bitrate=N/A speed=19.3x    frame=17886 fps=463 q=-0.0 size=N/A time=00:12:25.99 bitrate=N/A speed=19.3x    frame=18123 fps=463 q=-0.0 size=N/A time=00:12:35.88 bitrate=N/A speed=19.3x    frame=18354 fps=462 q=-0.0 size=N/A time=00:12:45.51 bitrate=N/A speed=19.3x    frame=18613 fps=463 q=-0.0 size=N/A time=00:12:56.31 bitrate=N/A speed=19.3x    frame=18862 fps=463 q=-0.0 size=N/A time=00:13:06.70 bitrate=N/A speed=19.3x    frame=19119 fps=464 q=-0.0 size=N/A time=00:13:17.42 bitrate=N/A speed=19.3x    frame=19333 fps=463 q=-0.0 size=N/A time=00:13:26.34 bitrate=N/A speed=19.3x    frame=19562 fps=463 q=-0.0 size=N/A time=00:13:35.89 bitrate=N/A speed=19.3x    frame=19815 fps=463 q=-0.0 size=N/A time=00:13:46.45 bitrate=N/A speed=19.3x    frame=20063 fps=463 q=-0.0 size=N/A time=00:13:56.79 bitrate=N/A speed=19.3x    frame=20307 fps=463 q=-0.0 size=N/A time=00:14:06.97 bitrate=N/A speed=19.3x    frame=20557 fps=464 q=-0.0 size=N/A time=00:14:17.43 bitrate=N/A speed=19.3x    frame=20794 fps=464 q=-0.0 size=N/A time=00:14:27.28 bitrate=N/A speed=19.3x    frame=21026 fps=463 q=-0.0 size=N/A time=00:14:36.95 bitrate=N/A speed=19.3x    frame=21225 fps=463 q=-0.0 size=N/A time=00:14:45.25 bitrate=N/A speed=19.3x    frame=21503 fps=463 q=-0.0 size=N/A time=00:14:56.85 bitrate=N/A speed=19.3x    frame=21769 fps=464 q=-0.0 size=N/A time=00:15:07.94 bitrate=N/A speed=19.4x    frame=22050 fps=465 q=-0.0 size=N/A time=00:15:19.66 bitrate=N/A speed=19.4x    frame=22325 fps=466 q=-0.0 size=N/A time=00:15:31.18 bitrate=N/A speed=19.4x    frame=22608 fps=466 q=-0.0 size=N/A time=00:15:42.94 bitrate=N/A speed=19.5x    frame=22881 fps=467 q=-0.0 size=N/A time=00:15:54.32 bitrate=N/A speed=19.5x    frame=23160 fps=468 q=-0.0 size=N/A time=00:16:05.96 bitrate=N/A speed=19.5x    frame=23414 fps=468 q=-0.0 size=N/A time=00:16:16.55 bitrate=N/A speed=19.5x    frame=23680 fps=469 q=-0.0 size=N/A time=00:16:27.65 bitrate=N/A speed=19.5x    frame=23945 fps=469 q=-0.0 size=N/A time=00:16:38.70 bitrate=N/A speed=19.6x    frame=24214 fps=470 q=-0.0 size=N/A time=00:16:49.92 bitrate=N/A speed=19.6x    frame=24495 fps=470 q=-0.0 size=N/A time=00:17:01.64 bitrate=N/A speed=19.6x    frame=24756 fps=471 q=-0.0 size=N/A time=00:17:12.53 bitrate=N/A speed=19.6x    frame=25022 fps=471 q=-0.0 size=N/A time=00:17:23.62 bitrate=N/A speed=19.7x    frame=25258 fps=471 q=-0.0 size=N/A time=00:17:33.46 bitrate=N/A speed=19.6x    frame=25537 fps=472 q=-0.0 size=N/A time=00:17:45.10 bitrate=N/A speed=19.7x    frame=25794 fps=472 q=-0.0 size=N/A time=00:17:55.82 bitrate=N/A speed=19.7x    frame=26052 fps=472 q=-0.0 size=N/A time=00:18:06.58 bitrate=N/A speed=19.7x    frame=26312 fps=473 q=-0.0 size=N/A time=00:18:17.42 bitrate=N/A speed=19.7x    frame=26579 fps=473 q=-0.0 size=N/A time=00:18:28.56 bitrate=N/A speed=19.7x    frame=26848 fps=473 q=-0.0 size=N/A time=00:18:39.78 bitrate=N/A speed=19.7x    frame=27098 fps=474 q=-0.0 size=N/A time=00:18:50.21 bitrate=N/A speed=19.7x    frame=27364 fps=474 q=-0.0 size=N/A time=00:19:01.30 bitrate=N/A speed=19.8x    frame=27607 fps=474 q=-0.0 size=N/A time=00:19:11.44 bitrate=N/A speed=19.8x    frame=27879 fps=474 q=-0.0 size=N/A time=00:19:22.78 bitrate=N/A speed=19.8x    frame=28140 fps=475 q=-0.0 size=N/A time=00:19:33.67 bitrate=N/A speed=19.8x    frame=28395 fps=475 q=-0.0 size=N/A time=00:19:44.30 bitrate=N/A speed=19.8x    frame=28673 fps=475 q=-0.0 size=N/A time=00:19:55.90 bitrate=N/A speed=19.8x    frame=28962 fps=476 q=-0.0 size=N/A time=00:20:07.95 bitrate=N/A speed=19.9x    frame=29215 fps=476 q=-0.0 size=N/A time=00:20:18.50 bitrate=N/A speed=19.9x    frame=29462 fps=476 q=-0.0 size=N/A time=00:20:28.81 bitrate=N/A speed=19.9x    frame=29729 fps=476 q=-0.0 size=N/A time=00:20:39.94 bitrate=N/A speed=19.9x    frame=29997 fps=477 q=-0.0 size=N/A time=00:20:51.12 bitrate=N/A speed=19.9x    frame=30271 fps=477 q=-0.0 size=N/A time=00:21:02.55 bitrate=N/A speed=19.9x    frame=30557 fps=478 q=-0.0 size=N/A time=00:21:14.48 bitrate=N/A speed=19.9x    frame=30845 fps=479 q=-0.0 size=N/A time=00:21:26.49 bitrate=N/A speed=  20x    frame=31127 fps=479 q=-0.0 size=N/A time=00:21:38.25 bitrate=N/A speed=  20x    frame=31400 fps=480 q=-0.0 size=N/A time=00:21:49.64 bitrate=N/A speed=  20x    frame=31655 fps=480 q=-0.0 size=N/A time=00:22:00.27 bitrate=N/A speed=  20x    frame=31893 fps=480 q=-0.0 size=N/A time=00:22:10.20 bitrate=N/A speed=  20x    frame=32112 fps=479 q=-0.0 size=N/A time=00:22:19.33 bitrate=N/A speed=  20x    frame=32379 fps=479 q=-0.0 size=N/A time=00:22:30.47 bitrate=N/A speed=  20x    frame=32608 fps=479 q=-0.0 size=N/A time=00:22:40.02 bitrate=N/A speed=  20x    frame=32799 fps=478 q=-0.0 size=N/A time=00:22:47.99 bitrate=N/A speed=19.9x    frame=33029 fps=478 q=-0.0 size=N/A time=00:22:57.58 bitrate=N/A speed=19.9x    frame=33231 fps=477 q=-0.0 size=N/A time=00:23:06.00 bitrate=N/A speed=19.9x    frame=33441 fps=477 q=-0.0 size=N/A time=00:23:14.76 bitrate=N/A speed=19.9x    frame=33705 fps=477 q=-0.0 size=N/A time=00:23:25.77 bitrate=N/A speed=19.9x    [Parsed_ssim_10 @ 0000027284296980] SSIM Y:0.995615 (23.580169) U:0.995239 (23.223039) V:0.995075 (23.075823) All:0.995462 (23.431570)
[out#0/null @ 00000272f78aba00] video:14532KiB audio:264500KiB subtitle:0KiB other streams:0KiB global headers:0KiB muxing overhead: unknown
frame=33819 fps=477 q=-0.0 Lsize=N/A time=00:23:30.53 bitrate=N/A speed=19.9x    
